<svg xmlns="http://www.w3.org/2000/svg" width="41.784" height="60" viewBox="0 0 41.784 60"><defs><style>.a{fill:#fff;}</style></defs><g transform="translate(0)"><g transform="translate(-0.075)"><g transform="translate(-743 -861)"><g transform="translate(743 861)"><path class="a" d="M20.967,5.418A14.759,14.759,0,1,0,35.726,20.177,14.759,14.759,0,0,0,20.967,5.418Zm0,27.672A12.913,12.913,0,1,1,33.88,20.177,12.913,12.913,0,0,1,20.967,33.09Z"/><path class="a" d="M20.967,0A20.916,20.916,0,0,0,.075,20.892,24.016,24.016,0,0,0,1.184,28a46.245,46.245,0,0,0,2.488,6.186C6.31,39.789,15.344,53.42,19.105,59.03a2.216,2.216,0,0,0,1.862.97h0a2.216,2.216,0,0,0,1.861-.971c3.749-5.6,12.758-19.211,15.433-24.857,1.969-4.156,3.6-8.019,3.6-13.286A20.911,20.911,0,0,0,20.967,0ZM36.592,33.393c-2.7,5.69-12.391,20.292-15.3,24.632a.395.395,0,0,1-.656,0C17.722,53.675,8,39.044,5.343,33.4c-1.731-3.682-3.422-7.68-3.422-12.5a19.046,19.046,0,0,1,38.092,0C40.013,25.784,38.531,29.3,36.592,33.393Z"/><path class="a" d="M24.559,12.333a7.327,7.327,0,0,0-1.984.47,7.194,7.194,0,0,1-1.429.384h0a7.207,7.207,0,0,1-1.428-.385,7.243,7.243,0,0,0-1.986-.458,3.708,3.708,0,0,0-3.743,4,7.031,7.031,0,0,0,.8,2.576,6.755,6.755,0,0,1,.624,1.759c-.03,1.586.044,5.42,1.374,6.776a1.8,1.8,0,0,0,1.3.568c1.177,0,1.7-1.509,2.495-3.792.177-.51.409-1.175.617-1.686.27.6.573,1.442.785,2.03.782,2.17,1.212,3.365,2.261,3.365,2.278,0,2.481-4.062,2.616-6.749.009-.176.017-.336.025-.472a7.929,7.929,0,0,1,.585-1.635,7.994,7.994,0,0,0,.832-2.747A3.712,3.712,0,0,0,24.559,12.333Zm1.213,6.026a7.638,7.638,0,0,0-.73,2.252c-.008.141-.016.305-.025.488a30.937,30.937,0,0,1-.271,3.117,7.027,7.027,0,0,1-.361,1.473c-.217-.5-.472-1.208-.664-1.739-.831-2.308-1.381-3.831-2.576-3.831-1.088,0-1.547,1.32-2.307,3.508a24.032,24.032,0,0,1-.893,2.319,13.129,13.129,0,0,1-.684-5.232,6.7,6.7,0,0,0-.782-2.544,6.816,6.816,0,0,1-.644-1.831c0-1.333.727-2.16,1.9-2.16a7.209,7.209,0,0,1,1.429.385,7.308,7.308,0,0,0,1.985.471h0a7.329,7.329,0,0,0,1.984-.47,7.047,7.047,0,0,1,1.428-.371,1.92,1.92,0,0,1,1.9,2.151,7.656,7.656,0,0,1-.683,2.014Z"/></g></g></g></g></svg>