<svg xmlns="http://www.w3.org/2000/svg" width="58.78" height="59.976" viewBox="0 0 58.78 59.976"><defs><style>.a{fill:#fff;}</style></defs><g transform="translate(0 -1)"><g transform="translate(-0.104 0.988)"><g transform="translate(-210 -861)"><g transform="translate(210 861)"><path class="a" d="M40.571,37.824a1.131,1.131,0,0,0,1.355-.13c2.165-1.962,9.419-8.586,11.877-11.43h0c3.418-3.954,5.08-7.756,5.08-11.622A14.631,14.631,0,1,0,42.019,29.1L40.06,36.559a1.132,1.132,0,0,0,.511,1.264Zm-5.714-14.4A12.859,12.859,0,0,1,44.072,1.785h.182A12.859,12.859,0,0,1,57.111,14.643c0,3.469-1.477,6.794-4.649,10.463-1.964,2.272-7.16,7.1-10.145,9.834l1.674-6.372a.886.886,0,0,0-.786-1.108A12.815,12.815,0,0,1,34.857,23.421Z"/><path class="a" d="M47.089,22.785V18.1h4.684a1.141,1.141,0,0,0,1.139-1.139V12.911a1.141,1.141,0,0,0-1.139-1.139H47.089V6.962a1.141,1.141,0,0,0-1.139-1.139H41.9a1.141,1.141,0,0,0-1.139,1.139v4.81H36.076a1.141,1.141,0,0,0-1.139,1.139v4.051A1.141,1.141,0,0,0,36.076,18.1h4.684v4.684A1.141,1.141,0,0,0,41.9,23.924h4.051a1.141,1.141,0,0,0,1.139-1.139Zm-1.772-5.316v4.684H42.532V17.468a1.141,1.141,0,0,0-1.139-1.139H36.709V13.544h4.684a1.141,1.141,0,0,0,1.139-1.139V7.595h2.785v4.81a1.141,1.141,0,0,0,1.139,1.139h4.684v2.785H46.456a1.141,1.141,0,0,0-1.139,1.139Z"/><path class="a" d="M22.628,57.684a17.806,17.806,0,0,0,5.911,2.18,9.938,9.938,0,0,0,1.515.124,4.395,4.395,0,0,0,2.134-.437L37.7,56.366A3.8,3.8,0,0,0,39.1,51.175l-3.547-6.143a3.869,3.869,0,0,0-5.208-1.422l-3.134,1.81-.021.013a4.428,4.428,0,0,1-3.148.188c-2.165-.548-5.563-2.62-9.463-9.375-2.014-3.488-4.226-8.451-3.332-12.284a4.684,4.684,0,0,1,1.844-2.989l0,0,3.134-1.81A3.867,3.867,0,0,0,17.6,13.943L14.052,7.8A3.824,3.824,0,0,0,8.86,6.405L3.343,9.59A6.049,6.049,0,0,0,1.23,12.543,17.542,17.542,0,0,0,.108,18.671c-.156,7.962,3.674,16.323,6.915,21.935S15.6,53.74,22.628,57.684ZM1.88,18.706c.092-4.71,1.652-7.178,2.349-7.581L9.746,7.94a1.978,1.978,0,0,1,.993-.265,2.082,2.082,0,0,1,.544.073,2.016,2.016,0,0,1,1.235.938l3.547,6.143a2.071,2.071,0,0,1-.726,2.8l-3.13,1.807a6.387,6.387,0,0,0-2.608,3.8c-.983,3.568.174,8.245,3.439,13.9,3.38,5.853,6.933,9.287,10.562,10.206a6.223,6.223,0,0,0,4.5-.389l3.125-1.8a2.073,2.073,0,0,1,2.787.773l3.547,6.143a2.055,2.055,0,0,1-.742,2.77L31.3,58.016c-.587.339-3.528.524-7.806-1.878-6.675-3.747-11.808-11-14.938-16.418S1.733,26.259,1.88,18.706Z"/></g></g></g></g></svg>