<svg xmlns="http://www.w3.org/2000/svg" width="63.156" height="59.974" viewBox="0 0 63.156 59.974"><defs><style>.a{fill:#060606;}</style></defs><g transform="translate(-1277 -861)"><g transform="translate(1276 861)"><g transform="translate(1)"><path class="a" d="M11.947,21.372a1.46,1.46,0,0,0-1.46-1.46H5.442a1.46,1.46,0,0,0-1.46,1.46v5.044a1.46,1.46,0,0,0,1.46,1.46h5.044a1.46,1.46,0,0,0,1.46-1.46Zm-6.106.4h4.248v4.248H5.841Z"/><path class="a" d="M22.035,21.372a1.46,1.46,0,0,0-1.46-1.46H15.531a1.46,1.46,0,0,0-1.46,1.46v5.044a1.46,1.46,0,0,0,1.46,1.46h5.044a1.46,1.46,0,0,0,1.46-1.46Zm-6.106.4h4.248v4.248H15.929Z"/><path class="a" d="M32.257,21.372a1.46,1.46,0,0,0-1.46-1.46H25.752a1.46,1.46,0,0,0-1.46,1.46v5.044a1.46,1.46,0,0,0,1.46,1.46H30.8a1.46,1.46,0,0,0,1.46-1.46Zm-6.106.4H30.4v4.248H26.15Z"/><path class="a" d="M42.345,21.372a1.46,1.46,0,0,0-1.46-1.46H35.841a1.46,1.46,0,0,0-1.46,1.46v5.044a1.46,1.46,0,0,0,1.46,1.46h5.044a1.46,1.46,0,0,0,1.46-1.46Zm-6.106.4h4.248v4.248H36.239Z"/><path class="a" d="M52.566,21.372a1.46,1.46,0,0,0-1.46-1.46H46.062a1.46,1.46,0,0,0-1.46,1.46v5.044a1.46,1.46,0,0,0,1.46,1.46h5.044a1.46,1.46,0,0,0,1.46-1.46Zm-6.106.4h4.248v4.248H46.46Z"/><path class="a" d="M12.08,32.655a1.46,1.46,0,0,0-1.46-1.46H5.575a1.46,1.46,0,0,0-1.46,1.46V37.7a1.46,1.46,0,0,0,1.46,1.46h5.044a1.46,1.46,0,0,0,1.46-1.46ZM10.221,37.3H5.973V33.053h4.248Z"/><path class="a" d="M22.168,32.655a1.46,1.46,0,0,0-1.46-1.46H15.664a1.46,1.46,0,0,0-1.46,1.46V37.7a1.46,1.46,0,0,0,1.46,1.46h5.044a1.46,1.46,0,0,0,1.46-1.46ZM20.31,37.3H16.062V33.053H20.31Z"/><path class="a" d="M32.389,32.655a1.46,1.46,0,0,0-1.46-1.46H25.885a1.46,1.46,0,0,0-1.46,1.46V37.7a1.46,1.46,0,0,0,1.46,1.46h5.044a1.46,1.46,0,0,0,1.46-1.46ZM30.531,37.3H26.283V33.053h4.248Z"/><path class="a" d="M12.08,43.142a1.46,1.46,0,0,0-1.46-1.46H5.575a1.46,1.46,0,0,0-1.46,1.46v5.177a1.46,1.46,0,0,0,1.46,1.46h5.044a1.46,1.46,0,0,0,1.46-1.46ZM10.221,47.92H5.973V43.54h4.248Z"/><path class="a" d="M22.168,43.142a1.46,1.46,0,0,0-1.46-1.46H15.664a1.46,1.46,0,0,0-1.46,1.46v5.177a1.46,1.46,0,0,0,1.46,1.46h5.044a1.46,1.46,0,0,0,1.46-1.46ZM20.31,47.92H16.062V43.54H20.31Z"/><path class="a" d="M56.549,33.573V11.639a5.514,5.514,0,0,0-5.48-5.665H49.115V3.323A3.306,3.306,0,0,0,45.831,0h-.558a3.342,3.342,0,0,0-3.326,3.323v2.65H14.6V3.323A3.307,3.307,0,0,0,11.317,0H10.76A3.342,3.342,0,0,0,7.434,3.323v2.65H5.926A5.892,5.892,0,0,0,0,11.639V48.466a5.892,5.892,0,0,0,5.926,5.693H37.3a14.164,14.164,0,0,0,11.518,5.814,14.331,14.331,0,0,0,7.727-26.4ZM47.257,8.642a1.447,1.447,0,0,1-1.447,1.447h-.558a1.447,1.447,0,0,1-1.447-1.447V3.305a1.447,1.447,0,0,1,1.447-1.447h.558a1.447,1.447,0,0,1,1.447,1.447Zm-34.513,0A1.447,1.447,0,0,1,11.3,10.088h-.558A1.447,1.447,0,0,1,9.292,8.642V3.305a1.447,1.447,0,0,1,1.447-1.447H11.3a1.447,1.447,0,0,1,1.447,1.447Zm-10.885,3A4.061,4.061,0,0,1,5.926,7.832H7.434v.828a3.312,3.312,0,0,0,3.326,3.288h.558A3.276,3.276,0,0,0,14.6,8.659V7.832H41.947v.828a3.312,3.312,0,0,0,3.326,3.288h.558a3.276,3.276,0,0,0,3.285-3.288V7.832h1.954a3.677,3.677,0,0,1,3.621,3.807V15.4H1.858ZM5.926,52.3a4.061,4.061,0,0,1-4.067-3.835V17.257H54.69v15.3a14.013,14.013,0,0,0-5.89-1.266,14.524,14.524,0,0,0-6.323,1.471v-.093a1.46,1.46,0,0,0-1.439-1.478H35.994a1.5,1.5,0,0,0-1.481,1.478v5.044a1.465,1.465,0,0,0,1.481,1.443h.023a14.408,14.408,0,0,0-1.54,6.462,14.239,14.239,0,0,0,1.653,6.68Zm31.218-15h-.772V33.053h4.248v.81A15.066,15.066,0,0,0,37.143,37.3ZM48.821,58.124A12.485,12.485,0,1,1,61.307,45.639,12.485,12.485,0,0,1,48.821,58.124Z"/><path class="a" d="M48.717,34.531a.929.929,0,0,0-.929.929v9.659L41.81,48.807a.932.932,0,0,0,.984,1.582l6.42-3.96a.92.92,0,0,0,.432-.791V35.46a.929.929,0,0,0-.929-.929Z"/></g></g></g></svg>